<svg xmlns="http://www.w3.org/2000/svg" version="1.1" xmlns:xlink="http://www.w3.org/1999/xlink" width="512" height="512" x="0" y="0" viewBox="0 0 512 512" style="enable-background:new 0 0 512 512" xml:space="preserve"><g><path d="M364.515 394.617H512v43.691H364.515zM187.031 468.309h147.484V512H187.031zM364.515 468.309H512V512H364.515z" fill="#147900" opacity="1" data-original="#000000"></path><path d="M266.139 129.748H105.286l-53.184 76.9C18.017 255.935 0 313.66 0 373.583V512h157.031v-73.691h177.484v-73.691h36.762c-1.706-56.704-19.573-111.146-51.955-157.969zm-11.484 68.326h-54.26c7.801 9.803 13.331 21.483 15.787 34.25h38.473v30h-38.468c-6.158 32.002-31.616 57.221-63.749 63l76.825 66.084-19.563 22.744-91.143-78.401v-39.178h19.819c21.927 0 40.545-14.407 46.906-34.249H117.42v-30h67.862c-6.36-19.843-24.979-34.25-46.906-34.25H117.42v-30h137.236v30zM91.151 70.665l15.322 29.083h158.478l15.322-29.083C292.321 47.798 299.017 25.826 299.749 0H71.676c.732 25.826 7.428 47.798 19.475 70.665z" fill="#147900" opacity="1" data-original="#000000"></path></g></svg>